<svg xmlns="http://www.w3.org/2000/svg" xmlns:xlink="http://www.w3.org/1999/xlink" width="377" zoomAndPan="magnify" viewBox="0 0 283.5 283.500005" height="377" preserveAspectRatio="xMidYMid meet" version="1.0"><defs><clipPath id="9f1647746a"><path d="M 0 0 L 283 0 L 283 283 L 0 283 Z M 0 0 " clip-rule="nonzero"/></clipPath></defs><g clip-path="url(#9f1647746a)"><path fill="#000000" d="M 283.5 141.75 C 283.5 144.070312 283.441406 146.386719 283.328125 148.707031 C 283.214844 151.023438 283.042969 153.335938 282.816406 155.644531 C 282.589844 157.953125 282.304688 160.253906 281.964844 162.550781 C 281.625 164.84375 281.230469 167.128906 280.777344 169.402344 C 280.324219 171.679688 279.816406 173.941406 279.25 176.191406 C 278.6875 178.441406 278.070312 180.679688 277.394531 182.898438 C 276.722656 185.117188 275.996094 187.320312 275.214844 189.503906 C 274.433594 191.6875 273.597656 193.851562 272.710938 195.996094 C 271.820312 198.136719 270.882812 200.257812 269.890625 202.355469 C 268.898438 204.453125 267.855469 206.523438 266.761719 208.570312 C 265.667969 210.617188 264.527344 212.632812 263.332031 214.625 C 262.140625 216.613281 260.898438 218.574219 259.609375 220.503906 C 258.320312 222.429688 256.988281 224.328125 255.605469 226.191406 C 254.222656 228.054688 252.796875 229.882812 251.324219 231.675781 C 249.851562 233.46875 248.335938 235.222656 246.78125 236.945312 C 245.222656 238.664062 243.621094 240.34375 241.980469 241.980469 C 240.34375 243.621094 238.664062 245.222656 236.945312 246.78125 C 235.222656 248.335938 233.46875 249.851562 231.675781 251.324219 C 229.882812 252.796875 228.054688 254.222656 226.191406 255.605469 C 224.328125 256.988281 222.429688 258.320312 220.503906 259.609375 C 218.574219 260.898438 216.613281 262.140625 214.625 263.332031 C 212.632812 264.527344 210.617188 265.667969 208.570312 266.761719 C 206.523438 267.855469 204.453125 268.898438 202.355469 269.890625 C 200.257812 270.882812 198.136719 271.820312 195.996094 272.710938 C 193.851562 273.597656 191.6875 274.433594 189.503906 275.214844 C 187.320312 275.996094 185.117188 276.722656 182.898438 277.394531 C 180.679688 278.070312 178.441406 278.6875 176.191406 279.25 C 173.941406 279.816406 171.679688 280.324219 169.402344 280.777344 C 167.128906 281.230469 164.84375 281.625 162.550781 281.964844 C 160.253906 282.304688 157.953125 282.589844 155.644531 282.816406 C 153.335938 283.042969 151.023438 283.214844 148.707031 283.328125 C 146.386719 283.441406 144.070312 283.5 141.75 283.5 C 139.429688 283.5 137.113281 283.441406 134.792969 283.328125 C 132.476562 283.214844 130.164062 283.042969 127.855469 282.816406 C 125.546875 282.589844 123.246094 282.304688 120.949219 281.964844 C 118.65625 281.625 116.371094 281.230469 114.097656 280.777344 C 111.820312 280.324219 109.558594 279.816406 107.308594 279.25 C 105.058594 278.6875 102.820312 278.070312 100.601562 277.394531 C 98.382812 276.722656 96.179688 275.996094 93.996094 275.214844 C 91.8125 274.433594 89.648438 273.597656 87.503906 272.710938 C 85.359375 271.820312 83.242188 270.882812 81.144531 269.890625 C 79.046875 268.898438 76.976562 267.855469 74.929688 266.761719 C 72.882812 265.667969 70.867188 264.527344 68.875 263.332031 C 66.886719 262.140625 64.925781 260.898438 62.996094 259.609375 C 61.070312 258.320312 59.171875 256.988281 57.308594 255.605469 C 55.445312 254.222656 53.617188 252.796875 51.824219 251.324219 C 50.03125 249.851562 48.273438 248.335938 46.554688 246.78125 C 44.835938 245.222656 43.15625 243.621094 41.519531 241.980469 C 39.878906 240.34375 38.277344 238.664062 36.71875 236.945312 C 35.164062 235.222656 33.648438 233.46875 32.175781 231.675781 C 30.703125 229.882812 29.277344 228.054688 27.894531 226.191406 C 26.511719 224.328125 25.179688 222.429688 23.890625 220.503906 C 22.601562 218.574219 21.359375 216.613281 20.167969 214.625 C 18.972656 212.632812 17.832031 210.617188 16.738281 208.570312 C 15.644531 206.523438 14.601562 204.453125 13.609375 202.355469 C 12.617188 200.257812 11.679688 198.136719 10.789062 195.996094 C 9.902344 193.851562 9.066406 191.6875 8.285156 189.503906 C 7.503906 187.320312 6.777344 185.117188 6.105469 182.898438 C 5.429688 180.679688 4.8125 178.441406 4.25 176.191406 C 3.683594 173.941406 3.175781 171.679688 2.722656 169.402344 C 2.269531 167.128906 1.875 164.84375 1.535156 162.550781 C 1.195312 160.253906 0.910156 157.953125 0.683594 155.644531 C 0.457031 153.335938 0.285156 151.023438 0.171875 148.707031 C 0.0585938 146.386719 0 144.070312 0 141.75 C 0 139.429688 0.0585938 137.113281 0.171875 134.792969 C 0.285156 132.476562 0.457031 130.164062 0.683594 127.855469 C 0.910156 125.546875 1.195312 123.246094 1.535156 120.949219 C 1.875 118.65625 2.269531 116.371094 2.722656 114.097656 C 3.175781 111.820312 3.683594 109.558594 4.25 107.308594 C 4.8125 105.058594 5.429688 102.820312 6.105469 100.601562 C 6.777344 98.382812 7.503906 96.179688 8.285156 93.996094 C 9.066406 91.8125 9.902344 89.648438 10.789062 87.503906 C 11.679688 85.363281 12.617188 83.242188 13.609375 81.144531 C 14.601562 79.046875 15.644531 76.976562 16.738281 74.929688 C 17.832031 72.882812 18.972656 70.867188 20.167969 68.875 C 21.359375 66.886719 22.601562 64.925781 23.890625 62.996094 C 25.179688 61.070312 26.511719 59.171875 27.894531 57.308594 C 29.277344 55.445312 30.703125 53.617188 32.175781 51.824219 C 33.648438 50.03125 35.164062 48.277344 36.71875 46.554688 C 38.277344 44.835938 39.878906 43.15625 41.519531 41.519531 C 43.15625 39.878906 44.835938 38.277344 46.554688 36.71875 C 48.273438 35.164062 50.03125 33.648438 51.824219 32.175781 C 53.617188 30.703125 55.445312 29.277344 57.308594 27.894531 C 59.171875 26.511719 61.070312 25.179688 62.996094 23.890625 C 64.925781 22.601562 66.886719 21.359375 68.875 20.167969 C 70.867188 18.972656 72.882812 17.832031 74.929688 16.738281 C 76.976562 15.644531 79.046875 14.601562 81.144531 13.609375 C 83.242188 12.617188 85.359375 11.679688 87.503906 10.789062 C 89.648438 9.902344 91.8125 9.066406 93.996094 8.285156 C 96.179688 7.503906 98.382812 6.777344 100.601562 6.105469 C 102.820312 5.429688 105.058594 4.8125 107.308594 4.25 C 109.558594 3.683594 111.820312 3.175781 114.097656 2.722656 C 116.371094 2.269531 118.65625 1.875 120.949219 1.535156 C 123.246094 1.195312 125.546875 0.910156 127.855469 0.683594 C 130.164062 0.457031 132.476562 0.285156 134.792969 0.171875 C 137.113281 0.0585938 139.429688 0 141.75 0 C 144.070312 0 146.386719 0.0585938 148.707031 0.171875 C 151.023438 0.285156 153.335938 0.457031 155.644531 0.683594 C 157.953125 0.910156 160.253906 1.195312 162.550781 1.535156 C 164.84375 1.875 167.128906 2.269531 169.402344 2.722656 C 171.679688 3.175781 173.941406 3.683594 176.191406 4.25 C 178.441406 4.8125 180.679688 5.429688 182.898438 6.105469 C 185.117188 6.777344 187.320312 7.503906 189.503906 8.285156 C 191.6875 9.066406 193.851562 9.902344 195.996094 10.789062 C 198.136719 11.679688 200.257812 12.617188 202.355469 13.609375 C 204.453125 14.601562 206.523438 15.644531 208.570312 16.738281 C 210.617188 17.832031 212.632812 18.972656 214.625 20.167969 C 216.613281 21.359375 218.574219 22.601562 220.503906 23.890625 C 222.429688 25.179688 224.328125 26.511719 226.191406 27.894531 C 228.054688 29.277344 229.882812 30.703125 231.675781 32.175781 C 233.46875 33.648438 235.222656 35.164062 236.945312 36.71875 C 238.664062 38.277344 240.34375 39.878906 241.980469 41.519531 C 243.621094 43.15625 245.222656 44.835938 246.78125 46.554688 C 248.335938 48.277344 249.851562 50.03125 251.324219 51.824219 C 252.796875 53.617188 254.222656 55.445312 255.605469 57.308594 C 256.988281 59.171875 258.320312 61.070312 259.609375 62.996094 C 260.898438 64.925781 262.140625 66.886719 263.332031 68.875 C 264.527344 70.867188 265.667969 72.882812 266.761719 74.929688 C 267.855469 76.976562 268.898438 79.046875 269.890625 81.144531 C 270.882812 83.242188 271.820312 85.363281 272.710938 87.503906 C 273.597656 89.648438 274.433594 91.8125 275.214844 93.996094 C 275.996094 96.179688 276.722656 98.382812 277.394531 100.601562 C 278.070312 102.820312 278.6875 105.058594 279.25 107.308594 C 279.816406 109.558594 280.324219 111.820312 280.777344 114.097656 C 281.230469 116.371094 281.625 118.65625 281.964844 120.949219 C 282.304688 123.246094 282.589844 125.546875 282.816406 127.855469 C 283.042969 130.164062 283.214844 132.476562 283.328125 134.792969 C 283.441406 137.113281 283.5 139.429688 283.5 141.75 Z M 283.5 141.75 " fill-opacity="1" fill-rule="nonzero"/></g></svg>